G04 #@! TF.FileFunction,Legend,Top*
%FSLAX46Y46*%
G04 Gerber Fmt 4.6, Leading zero omitted, Abs format (unit mm)*
G04 Created by KiCad (PCBNEW 4.0.6) date Sunday, June 10, 2018 'PMt' 08:04:18 PM*
%MOMM*%
%LPD*%
G01*
G04 APERTURE LIST*
%ADD10C,0.100000*%
%ADD11C,0.300000*%
%ADD12C,0.120000*%
%ADD13C,0.150000*%
%ADD14C,0.203200*%
%ADD15C,0.248920*%
%ADD16C,0.279400*%
G04 APERTURE END LIST*
D10*
D11*
X136428572Y-102519524D02*
X136428572Y-98519524D01*
X138714286Y-102519524D02*
X137000001Y-100233810D01*
X138714286Y-98519524D02*
X136428572Y-100805238D01*
X142523810Y-102519524D02*
X140238096Y-102519524D01*
X141380953Y-102519524D02*
X141380953Y-98519524D01*
X141000001Y-99090952D01*
X140619048Y-99471905D01*
X140238096Y-99662381D01*
X145952382Y-98519524D02*
X145190477Y-98519524D01*
X144809525Y-98710000D01*
X144619048Y-98900476D01*
X144238096Y-99471905D01*
X144047620Y-100233810D01*
X144047620Y-101757619D01*
X144238096Y-102138571D01*
X144428572Y-102329048D01*
X144809525Y-102519524D01*
X145571429Y-102519524D01*
X145952382Y-102329048D01*
X146142858Y-102138571D01*
X146333334Y-101757619D01*
X146333334Y-100805238D01*
X146142858Y-100424286D01*
X145952382Y-100233810D01*
X145571429Y-100043333D01*
X144809525Y-100043333D01*
X144428572Y-100233810D01*
X144238096Y-100424286D01*
X144047620Y-100805238D01*
X149380953Y-100424286D02*
X148047620Y-100424286D01*
X148047620Y-102519524D02*
X148047620Y-98519524D01*
X149952382Y-98519524D01*
D12*
X197286000Y-155000000D02*
G75*
G03X197286000Y-155000000I-2286000J0D01*
G01*
X93286000Y-155000000D02*
G75*
G03X93286000Y-155000000I-2286000J0D01*
G01*
X93286000Y-51000000D02*
G75*
G03X93286000Y-51000000I-2286000J0D01*
G01*
D13*
X152000000Y-55000000D02*
X152000000Y-67000000D01*
X162000000Y-55000000D02*
X152000000Y-55000000D01*
X162000000Y-67000000D02*
X162000000Y-55000000D01*
X162000000Y-55000000D02*
X162000000Y-67000000D01*
X152000000Y-67000000D02*
X162000000Y-67000000D01*
X96000000Y-55000000D02*
X96000000Y-67000000D01*
X106000000Y-55000000D02*
X96000000Y-55000000D01*
X106000000Y-67000000D02*
X106000000Y-55000000D01*
X106000000Y-55000000D02*
X106000000Y-67000000D01*
X96000000Y-67000000D02*
X106000000Y-67000000D01*
X124000000Y-55000000D02*
X124000000Y-67000000D01*
X134000000Y-55000000D02*
X124000000Y-55000000D01*
X134000000Y-67000000D02*
X134000000Y-55000000D01*
X134000000Y-55000000D02*
X134000000Y-67000000D01*
X124000000Y-67000000D02*
X134000000Y-67000000D01*
X180000000Y-55000000D02*
X180000000Y-67000000D01*
X190000000Y-55000000D02*
X180000000Y-55000000D01*
X190000000Y-67000000D02*
X190000000Y-55000000D01*
X190000000Y-55000000D02*
X190000000Y-67000000D01*
X180000000Y-67000000D02*
X190000000Y-67000000D01*
X96000000Y-83000000D02*
X96000000Y-95000000D01*
X106000000Y-83000000D02*
X96000000Y-83000000D01*
X106000000Y-95000000D02*
X106000000Y-83000000D01*
X106000000Y-83000000D02*
X106000000Y-95000000D01*
X96000000Y-95000000D02*
X106000000Y-95000000D01*
X124000000Y-83000000D02*
X124000000Y-95000000D01*
X134000000Y-83000000D02*
X124000000Y-83000000D01*
X134000000Y-95000000D02*
X134000000Y-83000000D01*
X134000000Y-83000000D02*
X134000000Y-95000000D01*
X124000000Y-95000000D02*
X134000000Y-95000000D01*
X152000000Y-83000000D02*
X152000000Y-95000000D01*
X162000000Y-83000000D02*
X152000000Y-83000000D01*
X162000000Y-95000000D02*
X162000000Y-83000000D01*
X162000000Y-83000000D02*
X162000000Y-95000000D01*
X152000000Y-95000000D02*
X162000000Y-95000000D01*
X180000000Y-83000000D02*
X180000000Y-95000000D01*
X190000000Y-83000000D02*
X180000000Y-83000000D01*
X190000000Y-95000000D02*
X190000000Y-83000000D01*
X190000000Y-83000000D02*
X190000000Y-95000000D01*
X180000000Y-95000000D02*
X190000000Y-95000000D01*
X96000000Y-111000000D02*
X96000000Y-123000000D01*
X106000000Y-111000000D02*
X96000000Y-111000000D01*
X106000000Y-123000000D02*
X106000000Y-111000000D01*
X106000000Y-111000000D02*
X106000000Y-123000000D01*
X96000000Y-123000000D02*
X106000000Y-123000000D01*
X124000000Y-111000000D02*
X124000000Y-123000000D01*
X134000000Y-111000000D02*
X124000000Y-111000000D01*
X134000000Y-123000000D02*
X134000000Y-111000000D01*
X134000000Y-111000000D02*
X134000000Y-123000000D01*
X124000000Y-123000000D02*
X134000000Y-123000000D01*
X152000000Y-111000000D02*
X152000000Y-123000000D01*
X162000000Y-111000000D02*
X152000000Y-111000000D01*
X162000000Y-123000000D02*
X162000000Y-111000000D01*
X162000000Y-111000000D02*
X162000000Y-123000000D01*
X152000000Y-123000000D02*
X162000000Y-123000000D01*
X180000000Y-111000000D02*
X180000000Y-123000000D01*
X190000000Y-111000000D02*
X180000000Y-111000000D01*
X190000000Y-123000000D02*
X190000000Y-111000000D01*
X190000000Y-111000000D02*
X190000000Y-123000000D01*
X180000000Y-123000000D02*
X190000000Y-123000000D01*
X96000000Y-139000000D02*
X96000000Y-151000000D01*
X106000000Y-139000000D02*
X96000000Y-139000000D01*
X106000000Y-151000000D02*
X106000000Y-139000000D01*
X106000000Y-139000000D02*
X106000000Y-151000000D01*
X96000000Y-151000000D02*
X106000000Y-151000000D01*
X124000000Y-139000000D02*
X124000000Y-151000000D01*
X134000000Y-139000000D02*
X124000000Y-139000000D01*
X134000000Y-151000000D02*
X134000000Y-139000000D01*
X134000000Y-139000000D02*
X134000000Y-151000000D01*
X124000000Y-151000000D02*
X134000000Y-151000000D01*
X152000000Y-139000000D02*
X152000000Y-151000000D01*
X162000000Y-139000000D02*
X152000000Y-139000000D01*
X162000000Y-151000000D02*
X162000000Y-139000000D01*
X162000000Y-139000000D02*
X162000000Y-151000000D01*
X152000000Y-151000000D02*
X162000000Y-151000000D01*
X180000000Y-139000000D02*
X180000000Y-151000000D01*
X190000000Y-139000000D02*
X180000000Y-139000000D01*
X190000000Y-151000000D02*
X190000000Y-139000000D01*
X190000000Y-139000000D02*
X190000000Y-151000000D01*
X180000000Y-151000000D02*
X190000000Y-151000000D01*
D12*
X197286000Y-51000000D02*
G75*
G03X197286000Y-51000000I-2286000J0D01*
G01*
X123570000Y-52330000D02*
X123570000Y-49670000D01*
X108270000Y-52330000D02*
X123570000Y-52330000D01*
X108270000Y-49670000D02*
X123570000Y-49670000D01*
X108270000Y-52330000D02*
X108270000Y-49670000D01*
X107000000Y-52330000D02*
X105670000Y-52330000D01*
X105670000Y-52330000D02*
X105670000Y-51000000D01*
D14*
X105749800Y-148499320D02*
X105749800Y-103500680D01*
X105749800Y-103500680D02*
X96250200Y-103500680D01*
X96250200Y-103500680D02*
X96250200Y-148499320D01*
X96250200Y-148499320D02*
X105749800Y-148499320D01*
D15*
X101492118Y-146497800D02*
G75*
G03X101492118Y-146497800I-492118J0D01*
G01*
X101492118Y-105502200D02*
G75*
G03X101492118Y-105502200I-492118J0D01*
G01*
D14*
X133749800Y-148499320D02*
X133749800Y-103500680D01*
X133749800Y-103500680D02*
X124250200Y-103500680D01*
X124250200Y-103500680D02*
X124250200Y-148499320D01*
X124250200Y-148499320D02*
X133749800Y-148499320D01*
D15*
X129492118Y-146497800D02*
G75*
G03X129492118Y-146497800I-492118J0D01*
G01*
X129492118Y-105502200D02*
G75*
G03X129492118Y-105502200I-492118J0D01*
G01*
D14*
X161749800Y-148499320D02*
X161749800Y-103500680D01*
X161749800Y-103500680D02*
X152250200Y-103500680D01*
X152250200Y-103500680D02*
X152250200Y-148499320D01*
X152250200Y-148499320D02*
X161749800Y-148499320D01*
D15*
X157492118Y-146497800D02*
G75*
G03X157492118Y-146497800I-492118J0D01*
G01*
X157492118Y-105502200D02*
G75*
G03X157492118Y-105502200I-492118J0D01*
G01*
D14*
X189749800Y-148499320D02*
X189749800Y-103500680D01*
X189749800Y-103500680D02*
X180250200Y-103500680D01*
X180250200Y-103500680D02*
X180250200Y-148499320D01*
X180250200Y-148499320D02*
X189749800Y-148499320D01*
D15*
X185492118Y-146497800D02*
G75*
G03X185492118Y-146497800I-492118J0D01*
G01*
X185492118Y-105502200D02*
G75*
G03X185492118Y-105502200I-492118J0D01*
G01*
D14*
X189749800Y-98499320D02*
X189749800Y-53500680D01*
X189749800Y-53500680D02*
X180250200Y-53500680D01*
X180250200Y-53500680D02*
X180250200Y-98499320D01*
X180250200Y-98499320D02*
X189749800Y-98499320D01*
D15*
X185492118Y-96497800D02*
G75*
G03X185492118Y-96497800I-492118J0D01*
G01*
X185492118Y-55502200D02*
G75*
G03X185492118Y-55502200I-492118J0D01*
G01*
D14*
X161749800Y-98499320D02*
X161749800Y-53500680D01*
X161749800Y-53500680D02*
X152250200Y-53500680D01*
X152250200Y-53500680D02*
X152250200Y-98499320D01*
X152250200Y-98499320D02*
X161749800Y-98499320D01*
D15*
X157492118Y-96497800D02*
G75*
G03X157492118Y-96497800I-492118J0D01*
G01*
X157492118Y-55502200D02*
G75*
G03X157492118Y-55502200I-492118J0D01*
G01*
D14*
X133749800Y-98499320D02*
X133749800Y-53500680D01*
X133749800Y-53500680D02*
X124250200Y-53500680D01*
X124250200Y-53500680D02*
X124250200Y-98499320D01*
X124250200Y-98499320D02*
X133749800Y-98499320D01*
D15*
X129492118Y-96497800D02*
G75*
G03X129492118Y-96497800I-492118J0D01*
G01*
X129492118Y-55502200D02*
G75*
G03X129492118Y-55502200I-492118J0D01*
G01*
D14*
X105749800Y-98499320D02*
X105749800Y-53500680D01*
X105749800Y-53500680D02*
X96250200Y-53500680D01*
X96250200Y-53500680D02*
X96250200Y-98499320D01*
X96250200Y-98499320D02*
X105749800Y-98499320D01*
D15*
X101492118Y-96497800D02*
G75*
G03X101492118Y-96497800I-492118J0D01*
G01*
X101492118Y-55502200D02*
G75*
G03X101492118Y-55502200I-492118J0D01*
G01*
D13*
X156404762Y-64452381D02*
X156071428Y-63976190D01*
X155833333Y-64452381D02*
X155833333Y-63452381D01*
X156214286Y-63452381D01*
X156309524Y-63500000D01*
X156357143Y-63547619D01*
X156404762Y-63642857D01*
X156404762Y-63785714D01*
X156357143Y-63880952D01*
X156309524Y-63928571D01*
X156214286Y-63976190D01*
X155833333Y-63976190D01*
X156690476Y-63452381D02*
X157023809Y-64452381D01*
X157357143Y-63452381D01*
X157595238Y-63452381D02*
X158214286Y-63452381D01*
X157880952Y-63833333D01*
X158023810Y-63833333D01*
X158119048Y-63880952D01*
X158166667Y-63928571D01*
X158214286Y-64023810D01*
X158214286Y-64261905D01*
X158166667Y-64357143D01*
X158119048Y-64404762D01*
X158023810Y-64452381D01*
X157738095Y-64452381D01*
X157642857Y-64404762D01*
X157595238Y-64357143D01*
X100404762Y-64452381D02*
X100071428Y-63976190D01*
X99833333Y-64452381D02*
X99833333Y-63452381D01*
X100214286Y-63452381D01*
X100309524Y-63500000D01*
X100357143Y-63547619D01*
X100404762Y-63642857D01*
X100404762Y-63785714D01*
X100357143Y-63880952D01*
X100309524Y-63928571D01*
X100214286Y-63976190D01*
X99833333Y-63976190D01*
X100690476Y-63452381D02*
X101023809Y-64452381D01*
X101357143Y-63452381D01*
X102214286Y-64452381D02*
X101642857Y-64452381D01*
X101928571Y-64452381D02*
X101928571Y-63452381D01*
X101833333Y-63595238D01*
X101738095Y-63690476D01*
X101642857Y-63738095D01*
X128404762Y-64452381D02*
X128071428Y-63976190D01*
X127833333Y-64452381D02*
X127833333Y-63452381D01*
X128214286Y-63452381D01*
X128309524Y-63500000D01*
X128357143Y-63547619D01*
X128404762Y-63642857D01*
X128404762Y-63785714D01*
X128357143Y-63880952D01*
X128309524Y-63928571D01*
X128214286Y-63976190D01*
X127833333Y-63976190D01*
X128690476Y-63452381D02*
X129023809Y-64452381D01*
X129357143Y-63452381D01*
X129642857Y-63547619D02*
X129690476Y-63500000D01*
X129785714Y-63452381D01*
X130023810Y-63452381D01*
X130119048Y-63500000D01*
X130166667Y-63547619D01*
X130214286Y-63642857D01*
X130214286Y-63738095D01*
X130166667Y-63880952D01*
X129595238Y-64452381D01*
X130214286Y-64452381D01*
X184404762Y-64452381D02*
X184071428Y-63976190D01*
X183833333Y-64452381D02*
X183833333Y-63452381D01*
X184214286Y-63452381D01*
X184309524Y-63500000D01*
X184357143Y-63547619D01*
X184404762Y-63642857D01*
X184404762Y-63785714D01*
X184357143Y-63880952D01*
X184309524Y-63928571D01*
X184214286Y-63976190D01*
X183833333Y-63976190D01*
X184690476Y-63452381D02*
X185023809Y-64452381D01*
X185357143Y-63452381D01*
X186119048Y-63785714D02*
X186119048Y-64452381D01*
X185880952Y-63404762D02*
X185642857Y-64119048D01*
X186261905Y-64119048D01*
X100404762Y-92452381D02*
X100071428Y-91976190D01*
X99833333Y-92452381D02*
X99833333Y-91452381D01*
X100214286Y-91452381D01*
X100309524Y-91500000D01*
X100357143Y-91547619D01*
X100404762Y-91642857D01*
X100404762Y-91785714D01*
X100357143Y-91880952D01*
X100309524Y-91928571D01*
X100214286Y-91976190D01*
X99833333Y-91976190D01*
X100690476Y-91452381D02*
X101023809Y-92452381D01*
X101357143Y-91452381D01*
X102166667Y-91452381D02*
X101690476Y-91452381D01*
X101642857Y-91928571D01*
X101690476Y-91880952D01*
X101785714Y-91833333D01*
X102023810Y-91833333D01*
X102119048Y-91880952D01*
X102166667Y-91928571D01*
X102214286Y-92023810D01*
X102214286Y-92261905D01*
X102166667Y-92357143D01*
X102119048Y-92404762D01*
X102023810Y-92452381D01*
X101785714Y-92452381D01*
X101690476Y-92404762D01*
X101642857Y-92357143D01*
X128404762Y-92452381D02*
X128071428Y-91976190D01*
X127833333Y-92452381D02*
X127833333Y-91452381D01*
X128214286Y-91452381D01*
X128309524Y-91500000D01*
X128357143Y-91547619D01*
X128404762Y-91642857D01*
X128404762Y-91785714D01*
X128357143Y-91880952D01*
X128309524Y-91928571D01*
X128214286Y-91976190D01*
X127833333Y-91976190D01*
X128690476Y-91452381D02*
X129023809Y-92452381D01*
X129357143Y-91452381D01*
X130119048Y-91452381D02*
X129928571Y-91452381D01*
X129833333Y-91500000D01*
X129785714Y-91547619D01*
X129690476Y-91690476D01*
X129642857Y-91880952D01*
X129642857Y-92261905D01*
X129690476Y-92357143D01*
X129738095Y-92404762D01*
X129833333Y-92452381D01*
X130023810Y-92452381D01*
X130119048Y-92404762D01*
X130166667Y-92357143D01*
X130214286Y-92261905D01*
X130214286Y-92023810D01*
X130166667Y-91928571D01*
X130119048Y-91880952D01*
X130023810Y-91833333D01*
X129833333Y-91833333D01*
X129738095Y-91880952D01*
X129690476Y-91928571D01*
X129642857Y-92023810D01*
X156404762Y-92452381D02*
X156071428Y-91976190D01*
X155833333Y-92452381D02*
X155833333Y-91452381D01*
X156214286Y-91452381D01*
X156309524Y-91500000D01*
X156357143Y-91547619D01*
X156404762Y-91642857D01*
X156404762Y-91785714D01*
X156357143Y-91880952D01*
X156309524Y-91928571D01*
X156214286Y-91976190D01*
X155833333Y-91976190D01*
X156690476Y-91452381D02*
X157023809Y-92452381D01*
X157357143Y-91452381D01*
X157595238Y-91452381D02*
X158261905Y-91452381D01*
X157833333Y-92452381D01*
X184404762Y-92452381D02*
X184071428Y-91976190D01*
X183833333Y-92452381D02*
X183833333Y-91452381D01*
X184214286Y-91452381D01*
X184309524Y-91500000D01*
X184357143Y-91547619D01*
X184404762Y-91642857D01*
X184404762Y-91785714D01*
X184357143Y-91880952D01*
X184309524Y-91928571D01*
X184214286Y-91976190D01*
X183833333Y-91976190D01*
X184690476Y-91452381D02*
X185023809Y-92452381D01*
X185357143Y-91452381D01*
X185833333Y-91880952D02*
X185738095Y-91833333D01*
X185690476Y-91785714D01*
X185642857Y-91690476D01*
X185642857Y-91642857D01*
X185690476Y-91547619D01*
X185738095Y-91500000D01*
X185833333Y-91452381D01*
X186023810Y-91452381D01*
X186119048Y-91500000D01*
X186166667Y-91547619D01*
X186214286Y-91642857D01*
X186214286Y-91690476D01*
X186166667Y-91785714D01*
X186119048Y-91833333D01*
X186023810Y-91880952D01*
X185833333Y-91880952D01*
X185738095Y-91928571D01*
X185690476Y-91976190D01*
X185642857Y-92071429D01*
X185642857Y-92261905D01*
X185690476Y-92357143D01*
X185738095Y-92404762D01*
X185833333Y-92452381D01*
X186023810Y-92452381D01*
X186119048Y-92404762D01*
X186166667Y-92357143D01*
X186214286Y-92261905D01*
X186214286Y-92071429D01*
X186166667Y-91976190D01*
X186119048Y-91928571D01*
X186023810Y-91880952D01*
X100404762Y-120452381D02*
X100071428Y-119976190D01*
X99833333Y-120452381D02*
X99833333Y-119452381D01*
X100214286Y-119452381D01*
X100309524Y-119500000D01*
X100357143Y-119547619D01*
X100404762Y-119642857D01*
X100404762Y-119785714D01*
X100357143Y-119880952D01*
X100309524Y-119928571D01*
X100214286Y-119976190D01*
X99833333Y-119976190D01*
X100690476Y-119452381D02*
X101023809Y-120452381D01*
X101357143Y-119452381D01*
X101738095Y-120452381D02*
X101928571Y-120452381D01*
X102023810Y-120404762D01*
X102071429Y-120357143D01*
X102166667Y-120214286D01*
X102214286Y-120023810D01*
X102214286Y-119642857D01*
X102166667Y-119547619D01*
X102119048Y-119500000D01*
X102023810Y-119452381D01*
X101833333Y-119452381D01*
X101738095Y-119500000D01*
X101690476Y-119547619D01*
X101642857Y-119642857D01*
X101642857Y-119880952D01*
X101690476Y-119976190D01*
X101738095Y-120023810D01*
X101833333Y-120071429D01*
X102023810Y-120071429D01*
X102119048Y-120023810D01*
X102166667Y-119976190D01*
X102214286Y-119880952D01*
X127928572Y-120452381D02*
X127595238Y-119976190D01*
X127357143Y-120452381D02*
X127357143Y-119452381D01*
X127738096Y-119452381D01*
X127833334Y-119500000D01*
X127880953Y-119547619D01*
X127928572Y-119642857D01*
X127928572Y-119785714D01*
X127880953Y-119880952D01*
X127833334Y-119928571D01*
X127738096Y-119976190D01*
X127357143Y-119976190D01*
X128214286Y-119452381D02*
X128547619Y-120452381D01*
X128880953Y-119452381D01*
X129738096Y-120452381D02*
X129166667Y-120452381D01*
X129452381Y-120452381D02*
X129452381Y-119452381D01*
X129357143Y-119595238D01*
X129261905Y-119690476D01*
X129166667Y-119738095D01*
X130357143Y-119452381D02*
X130452382Y-119452381D01*
X130547620Y-119500000D01*
X130595239Y-119547619D01*
X130642858Y-119642857D01*
X130690477Y-119833333D01*
X130690477Y-120071429D01*
X130642858Y-120261905D01*
X130595239Y-120357143D01*
X130547620Y-120404762D01*
X130452382Y-120452381D01*
X130357143Y-120452381D01*
X130261905Y-120404762D01*
X130214286Y-120357143D01*
X130166667Y-120261905D01*
X130119048Y-120071429D01*
X130119048Y-119833333D01*
X130166667Y-119642857D01*
X130214286Y-119547619D01*
X130261905Y-119500000D01*
X130357143Y-119452381D01*
X155928572Y-120452381D02*
X155595238Y-119976190D01*
X155357143Y-120452381D02*
X155357143Y-119452381D01*
X155738096Y-119452381D01*
X155833334Y-119500000D01*
X155880953Y-119547619D01*
X155928572Y-119642857D01*
X155928572Y-119785714D01*
X155880953Y-119880952D01*
X155833334Y-119928571D01*
X155738096Y-119976190D01*
X155357143Y-119976190D01*
X156214286Y-119452381D02*
X156547619Y-120452381D01*
X156880953Y-119452381D01*
X157738096Y-120452381D02*
X157166667Y-120452381D01*
X157452381Y-120452381D02*
X157452381Y-119452381D01*
X157357143Y-119595238D01*
X157261905Y-119690476D01*
X157166667Y-119738095D01*
X158690477Y-120452381D02*
X158119048Y-120452381D01*
X158404762Y-120452381D02*
X158404762Y-119452381D01*
X158309524Y-119595238D01*
X158214286Y-119690476D01*
X158119048Y-119738095D01*
X183928572Y-120452381D02*
X183595238Y-119976190D01*
X183357143Y-120452381D02*
X183357143Y-119452381D01*
X183738096Y-119452381D01*
X183833334Y-119500000D01*
X183880953Y-119547619D01*
X183928572Y-119642857D01*
X183928572Y-119785714D01*
X183880953Y-119880952D01*
X183833334Y-119928571D01*
X183738096Y-119976190D01*
X183357143Y-119976190D01*
X184214286Y-119452381D02*
X184547619Y-120452381D01*
X184880953Y-119452381D01*
X185738096Y-120452381D02*
X185166667Y-120452381D01*
X185452381Y-120452381D02*
X185452381Y-119452381D01*
X185357143Y-119595238D01*
X185261905Y-119690476D01*
X185166667Y-119738095D01*
X186119048Y-119547619D02*
X186166667Y-119500000D01*
X186261905Y-119452381D01*
X186500001Y-119452381D01*
X186595239Y-119500000D01*
X186642858Y-119547619D01*
X186690477Y-119642857D01*
X186690477Y-119738095D01*
X186642858Y-119880952D01*
X186071429Y-120452381D01*
X186690477Y-120452381D01*
X99928572Y-148452381D02*
X99595238Y-147976190D01*
X99357143Y-148452381D02*
X99357143Y-147452381D01*
X99738096Y-147452381D01*
X99833334Y-147500000D01*
X99880953Y-147547619D01*
X99928572Y-147642857D01*
X99928572Y-147785714D01*
X99880953Y-147880952D01*
X99833334Y-147928571D01*
X99738096Y-147976190D01*
X99357143Y-147976190D01*
X100214286Y-147452381D02*
X100547619Y-148452381D01*
X100880953Y-147452381D01*
X101738096Y-148452381D02*
X101166667Y-148452381D01*
X101452381Y-148452381D02*
X101452381Y-147452381D01*
X101357143Y-147595238D01*
X101261905Y-147690476D01*
X101166667Y-147738095D01*
X102071429Y-147452381D02*
X102690477Y-147452381D01*
X102357143Y-147833333D01*
X102500001Y-147833333D01*
X102595239Y-147880952D01*
X102642858Y-147928571D01*
X102690477Y-148023810D01*
X102690477Y-148261905D01*
X102642858Y-148357143D01*
X102595239Y-148404762D01*
X102500001Y-148452381D01*
X102214286Y-148452381D01*
X102119048Y-148404762D01*
X102071429Y-148357143D01*
X127928572Y-148452381D02*
X127595238Y-147976190D01*
X127357143Y-148452381D02*
X127357143Y-147452381D01*
X127738096Y-147452381D01*
X127833334Y-147500000D01*
X127880953Y-147547619D01*
X127928572Y-147642857D01*
X127928572Y-147785714D01*
X127880953Y-147880952D01*
X127833334Y-147928571D01*
X127738096Y-147976190D01*
X127357143Y-147976190D01*
X128214286Y-147452381D02*
X128547619Y-148452381D01*
X128880953Y-147452381D01*
X129738096Y-148452381D02*
X129166667Y-148452381D01*
X129452381Y-148452381D02*
X129452381Y-147452381D01*
X129357143Y-147595238D01*
X129261905Y-147690476D01*
X129166667Y-147738095D01*
X130595239Y-147785714D02*
X130595239Y-148452381D01*
X130357143Y-147404762D02*
X130119048Y-148119048D01*
X130738096Y-148119048D01*
X155928572Y-148452381D02*
X155595238Y-147976190D01*
X155357143Y-148452381D02*
X155357143Y-147452381D01*
X155738096Y-147452381D01*
X155833334Y-147500000D01*
X155880953Y-147547619D01*
X155928572Y-147642857D01*
X155928572Y-147785714D01*
X155880953Y-147880952D01*
X155833334Y-147928571D01*
X155738096Y-147976190D01*
X155357143Y-147976190D01*
X156214286Y-147452381D02*
X156547619Y-148452381D01*
X156880953Y-147452381D01*
X157738096Y-148452381D02*
X157166667Y-148452381D01*
X157452381Y-148452381D02*
X157452381Y-147452381D01*
X157357143Y-147595238D01*
X157261905Y-147690476D01*
X157166667Y-147738095D01*
X158642858Y-147452381D02*
X158166667Y-147452381D01*
X158119048Y-147928571D01*
X158166667Y-147880952D01*
X158261905Y-147833333D01*
X158500001Y-147833333D01*
X158595239Y-147880952D01*
X158642858Y-147928571D01*
X158690477Y-148023810D01*
X158690477Y-148261905D01*
X158642858Y-148357143D01*
X158595239Y-148404762D01*
X158500001Y-148452381D01*
X158261905Y-148452381D01*
X158166667Y-148404762D01*
X158119048Y-148357143D01*
X183928572Y-148452381D02*
X183595238Y-147976190D01*
X183357143Y-148452381D02*
X183357143Y-147452381D01*
X183738096Y-147452381D01*
X183833334Y-147500000D01*
X183880953Y-147547619D01*
X183928572Y-147642857D01*
X183928572Y-147785714D01*
X183880953Y-147880952D01*
X183833334Y-147928571D01*
X183738096Y-147976190D01*
X183357143Y-147976190D01*
X184214286Y-147452381D02*
X184547619Y-148452381D01*
X184880953Y-147452381D01*
X185738096Y-148452381D02*
X185166667Y-148452381D01*
X185452381Y-148452381D02*
X185452381Y-147452381D01*
X185357143Y-147595238D01*
X185261905Y-147690476D01*
X185166667Y-147738095D01*
X186595239Y-147452381D02*
X186404762Y-147452381D01*
X186309524Y-147500000D01*
X186261905Y-147547619D01*
X186166667Y-147690476D01*
X186119048Y-147880952D01*
X186119048Y-148261905D01*
X186166667Y-148357143D01*
X186214286Y-148404762D01*
X186309524Y-148452381D01*
X186500001Y-148452381D01*
X186595239Y-148404762D01*
X186642858Y-148357143D01*
X186690477Y-148261905D01*
X186690477Y-148023810D01*
X186642858Y-147928571D01*
X186595239Y-147880952D01*
X186500001Y-147833333D01*
X186309524Y-147833333D01*
X186214286Y-147880952D01*
X186166667Y-147928571D01*
X186119048Y-148023810D01*
X105918095Y-53200000D02*
X105822857Y-53152381D01*
X105680000Y-53152381D01*
X105537142Y-53200000D01*
X105441904Y-53295238D01*
X105394285Y-53390476D01*
X105346666Y-53580952D01*
X105346666Y-53723810D01*
X105394285Y-53914286D01*
X105441904Y-54009524D01*
X105537142Y-54104762D01*
X105680000Y-54152381D01*
X105775238Y-54152381D01*
X105918095Y-54104762D01*
X105965714Y-54057143D01*
X105965714Y-53723810D01*
X105775238Y-53723810D01*
X106394285Y-54152381D02*
X106394285Y-53152381D01*
X106965714Y-54152381D01*
X106965714Y-53152381D01*
X107441904Y-54152381D02*
X107441904Y-53152381D01*
X107679999Y-53152381D01*
X107822857Y-53200000D01*
X107918095Y-53295238D01*
X107965714Y-53390476D01*
X108013333Y-53580952D01*
X108013333Y-53723810D01*
X107965714Y-53914286D01*
X107918095Y-54009524D01*
X107822857Y-54104762D01*
X107679999Y-54152381D01*
X107441904Y-54152381D01*
X109060952Y-53152381D02*
X109394285Y-54152381D01*
X109727619Y-53152381D01*
X110632381Y-54057143D02*
X110584762Y-54104762D01*
X110441905Y-54152381D01*
X110346667Y-54152381D01*
X110203809Y-54104762D01*
X110108571Y-54009524D01*
X110060952Y-53914286D01*
X110013333Y-53723810D01*
X110013333Y-53580952D01*
X110060952Y-53390476D01*
X110108571Y-53295238D01*
X110203809Y-53200000D01*
X110346667Y-53152381D01*
X110441905Y-53152381D01*
X110584762Y-53200000D01*
X110632381Y-53247619D01*
X111632381Y-54057143D02*
X111584762Y-54104762D01*
X111441905Y-54152381D01*
X111346667Y-54152381D01*
X111203809Y-54104762D01*
X111108571Y-54009524D01*
X111060952Y-53914286D01*
X111013333Y-53723810D01*
X111013333Y-53580952D01*
X111060952Y-53390476D01*
X111108571Y-53295238D01*
X111203809Y-53200000D01*
X111346667Y-53152381D01*
X111441905Y-53152381D01*
X111584762Y-53200000D01*
X111632381Y-53247619D01*
X112727619Y-53152381D02*
X113394286Y-54152381D01*
X113394286Y-53152381D02*
X112727619Y-54152381D01*
X114489524Y-54104762D02*
X114632381Y-54152381D01*
X114870477Y-54152381D01*
X114965715Y-54104762D01*
X115013334Y-54057143D01*
X115060953Y-53961905D01*
X115060953Y-53866667D01*
X115013334Y-53771429D01*
X114965715Y-53723810D01*
X114870477Y-53676190D01*
X114680000Y-53628571D01*
X114584762Y-53580952D01*
X114537143Y-53533333D01*
X114489524Y-53438095D01*
X114489524Y-53342857D01*
X114537143Y-53247619D01*
X114584762Y-53200000D01*
X114680000Y-53152381D01*
X114918096Y-53152381D01*
X115060953Y-53200000D01*
X115680000Y-53152381D02*
X115775239Y-53152381D01*
X115870477Y-53200000D01*
X115918096Y-53247619D01*
X115965715Y-53342857D01*
X116013334Y-53533333D01*
X116013334Y-53771429D01*
X115965715Y-53961905D01*
X115918096Y-54057143D01*
X115870477Y-54104762D01*
X115775239Y-54152381D01*
X115680000Y-54152381D01*
X115584762Y-54104762D01*
X115537143Y-54057143D01*
X115489524Y-53961905D01*
X115441905Y-53771429D01*
X115441905Y-53533333D01*
X115489524Y-53342857D01*
X115537143Y-53247619D01*
X115584762Y-53200000D01*
X115680000Y-53152381D01*
X117156191Y-54104762D02*
X117299048Y-54152381D01*
X117537144Y-54152381D01*
X117632382Y-54104762D01*
X117680001Y-54057143D01*
X117727620Y-53961905D01*
X117727620Y-53866667D01*
X117680001Y-53771429D01*
X117632382Y-53723810D01*
X117537144Y-53676190D01*
X117346667Y-53628571D01*
X117251429Y-53580952D01*
X117203810Y-53533333D01*
X117156191Y-53438095D01*
X117156191Y-53342857D01*
X117203810Y-53247619D01*
X117251429Y-53200000D01*
X117346667Y-53152381D01*
X117584763Y-53152381D01*
X117727620Y-53200000D01*
X118680001Y-54152381D02*
X118108572Y-54152381D01*
X118394286Y-54152381D02*
X118394286Y-53152381D01*
X118299048Y-53295238D01*
X118203810Y-53390476D01*
X118108572Y-53438095D01*
X119822858Y-54104762D02*
X119965715Y-54152381D01*
X120203811Y-54152381D01*
X120299049Y-54104762D01*
X120346668Y-54057143D01*
X120394287Y-53961905D01*
X120394287Y-53866667D01*
X120346668Y-53771429D01*
X120299049Y-53723810D01*
X120203811Y-53676190D01*
X120013334Y-53628571D01*
X119918096Y-53580952D01*
X119870477Y-53533333D01*
X119822858Y-53438095D01*
X119822858Y-53342857D01*
X119870477Y-53247619D01*
X119918096Y-53200000D01*
X120013334Y-53152381D01*
X120251430Y-53152381D01*
X120394287Y-53200000D01*
X120775239Y-53247619D02*
X120822858Y-53200000D01*
X120918096Y-53152381D01*
X121156192Y-53152381D01*
X121251430Y-53200000D01*
X121299049Y-53247619D01*
X121346668Y-53342857D01*
X121346668Y-53438095D01*
X121299049Y-53580952D01*
X120727620Y-54152381D01*
X121346668Y-54152381D01*
X122489525Y-54104762D02*
X122632382Y-54152381D01*
X122870478Y-54152381D01*
X122965716Y-54104762D01*
X123013335Y-54057143D01*
X123060954Y-53961905D01*
X123060954Y-53866667D01*
X123013335Y-53771429D01*
X122965716Y-53723810D01*
X122870478Y-53676190D01*
X122680001Y-53628571D01*
X122584763Y-53580952D01*
X122537144Y-53533333D01*
X122489525Y-53438095D01*
X122489525Y-53342857D01*
X122537144Y-53247619D01*
X122584763Y-53200000D01*
X122680001Y-53152381D01*
X122918097Y-53152381D01*
X123060954Y-53200000D01*
X123394287Y-53152381D02*
X124013335Y-53152381D01*
X123680001Y-53533333D01*
X123822859Y-53533333D01*
X123918097Y-53580952D01*
X123965716Y-53628571D01*
X124013335Y-53723810D01*
X124013335Y-53961905D01*
X123965716Y-54057143D01*
X123918097Y-54104762D01*
X123822859Y-54152381D01*
X123537144Y-54152381D01*
X123441906Y-54104762D01*
X123394287Y-54057143D01*
D16*
X101804333Y-130905000D02*
X100957667Y-131497666D01*
X101804333Y-131921000D02*
X100026333Y-131921000D01*
X100026333Y-131243666D01*
X100111000Y-131074333D01*
X100195667Y-130989666D01*
X100365000Y-130905000D01*
X100619000Y-130905000D01*
X100788333Y-130989666D01*
X100873000Y-131074333D01*
X100957667Y-131243666D01*
X100957667Y-131921000D01*
X100026333Y-130397000D02*
X101804333Y-129804333D01*
X100026333Y-129211666D01*
X100195667Y-128703666D02*
X100111000Y-128619000D01*
X100026333Y-128449666D01*
X100026333Y-128026333D01*
X100111000Y-127857000D01*
X100195667Y-127772333D01*
X100365000Y-127687666D01*
X100534333Y-127687666D01*
X100788333Y-127772333D01*
X101804333Y-128788333D01*
X101804333Y-127687666D01*
X101804333Y-125994333D02*
X101804333Y-127010333D01*
X101804333Y-126502333D02*
X100026333Y-126502333D01*
X100280333Y-126671667D01*
X100449667Y-126841000D01*
X100534333Y-127010333D01*
X129804333Y-130905000D02*
X128957667Y-131497666D01*
X129804333Y-131921000D02*
X128026333Y-131921000D01*
X128026333Y-131243666D01*
X128111000Y-131074333D01*
X128195667Y-130989666D01*
X128365000Y-130905000D01*
X128619000Y-130905000D01*
X128788333Y-130989666D01*
X128873000Y-131074333D01*
X128957667Y-131243666D01*
X128957667Y-131921000D01*
X128026333Y-130397000D02*
X129804333Y-129804333D01*
X128026333Y-129211666D01*
X128195667Y-128703666D02*
X128111000Y-128619000D01*
X128026333Y-128449666D01*
X128026333Y-128026333D01*
X128111000Y-127857000D01*
X128195667Y-127772333D01*
X128365000Y-127687666D01*
X128534333Y-127687666D01*
X128788333Y-127772333D01*
X129804333Y-128788333D01*
X129804333Y-127687666D01*
X128195667Y-127010333D02*
X128111000Y-126925667D01*
X128026333Y-126756333D01*
X128026333Y-126333000D01*
X128111000Y-126163667D01*
X128195667Y-126079000D01*
X128365000Y-125994333D01*
X128534333Y-125994333D01*
X128788333Y-126079000D01*
X129804333Y-127095000D01*
X129804333Y-125994333D01*
X157804333Y-130905000D02*
X156957667Y-131497666D01*
X157804333Y-131921000D02*
X156026333Y-131921000D01*
X156026333Y-131243666D01*
X156111000Y-131074333D01*
X156195667Y-130989666D01*
X156365000Y-130905000D01*
X156619000Y-130905000D01*
X156788333Y-130989666D01*
X156873000Y-131074333D01*
X156957667Y-131243666D01*
X156957667Y-131921000D01*
X156026333Y-130397000D02*
X157804333Y-129804333D01*
X156026333Y-129211666D01*
X156195667Y-128703666D02*
X156111000Y-128619000D01*
X156026333Y-128449666D01*
X156026333Y-128026333D01*
X156111000Y-127857000D01*
X156195667Y-127772333D01*
X156365000Y-127687666D01*
X156534333Y-127687666D01*
X156788333Y-127772333D01*
X157804333Y-128788333D01*
X157804333Y-127687666D01*
X156026333Y-127095000D02*
X156026333Y-125994333D01*
X156703667Y-126587000D01*
X156703667Y-126333000D01*
X156788333Y-126163667D01*
X156873000Y-126079000D01*
X157042333Y-125994333D01*
X157465667Y-125994333D01*
X157635000Y-126079000D01*
X157719667Y-126163667D01*
X157804333Y-126333000D01*
X157804333Y-126841000D01*
X157719667Y-127010333D01*
X157635000Y-127095000D01*
X185804333Y-130905000D02*
X184957667Y-131497666D01*
X185804333Y-131921000D02*
X184026333Y-131921000D01*
X184026333Y-131243666D01*
X184111000Y-131074333D01*
X184195667Y-130989666D01*
X184365000Y-130905000D01*
X184619000Y-130905000D01*
X184788333Y-130989666D01*
X184873000Y-131074333D01*
X184957667Y-131243666D01*
X184957667Y-131921000D01*
X184026333Y-130397000D02*
X185804333Y-129804333D01*
X184026333Y-129211666D01*
X184195667Y-128703666D02*
X184111000Y-128619000D01*
X184026333Y-128449666D01*
X184026333Y-128026333D01*
X184111000Y-127857000D01*
X184195667Y-127772333D01*
X184365000Y-127687666D01*
X184534333Y-127687666D01*
X184788333Y-127772333D01*
X185804333Y-128788333D01*
X185804333Y-127687666D01*
X184619000Y-126163667D02*
X185804333Y-126163667D01*
X183941667Y-126587000D02*
X185211667Y-127010333D01*
X185211667Y-125909667D01*
X186104333Y-77305000D02*
X185257667Y-77897666D01*
X186104333Y-78321000D02*
X184326333Y-78321000D01*
X184326333Y-77643666D01*
X184411000Y-77474333D01*
X184495667Y-77389666D01*
X184665000Y-77305000D01*
X184919000Y-77305000D01*
X185088333Y-77389666D01*
X185173000Y-77474333D01*
X185257667Y-77643666D01*
X185257667Y-78321000D01*
X184326333Y-76797000D02*
X186104333Y-76204333D01*
X184326333Y-75611666D01*
X184495667Y-75103666D02*
X184411000Y-75019000D01*
X184326333Y-74849666D01*
X184326333Y-74426333D01*
X184411000Y-74257000D01*
X184495667Y-74172333D01*
X184665000Y-74087666D01*
X184834333Y-74087666D01*
X185088333Y-74172333D01*
X186104333Y-75188333D01*
X186104333Y-74087666D01*
X184326333Y-72987000D02*
X184326333Y-72817667D01*
X184411000Y-72648333D01*
X184495667Y-72563667D01*
X184665000Y-72479000D01*
X185003667Y-72394333D01*
X185427000Y-72394333D01*
X185765667Y-72479000D01*
X185935000Y-72563667D01*
X186019667Y-72648333D01*
X186104333Y-72817667D01*
X186104333Y-72987000D01*
X186019667Y-73156333D01*
X185935000Y-73241000D01*
X185765667Y-73325667D01*
X185427000Y-73410333D01*
X185003667Y-73410333D01*
X184665000Y-73325667D01*
X184495667Y-73241000D01*
X184411000Y-73156333D01*
X184326333Y-72987000D01*
X158104333Y-77305000D02*
X157257667Y-77897666D01*
X158104333Y-78321000D02*
X156326333Y-78321000D01*
X156326333Y-77643666D01*
X156411000Y-77474333D01*
X156495667Y-77389666D01*
X156665000Y-77305000D01*
X156919000Y-77305000D01*
X157088333Y-77389666D01*
X157173000Y-77474333D01*
X157257667Y-77643666D01*
X157257667Y-78321000D01*
X156326333Y-76797000D02*
X158104333Y-76204333D01*
X156326333Y-75611666D01*
X158104333Y-74087666D02*
X158104333Y-75103666D01*
X158104333Y-74595666D02*
X156326333Y-74595666D01*
X156580333Y-74765000D01*
X156749667Y-74934333D01*
X156834333Y-75103666D01*
X158104333Y-73241000D02*
X158104333Y-72902333D01*
X158019667Y-72733000D01*
X157935000Y-72648333D01*
X157681000Y-72479000D01*
X157342333Y-72394333D01*
X156665000Y-72394333D01*
X156495667Y-72479000D01*
X156411000Y-72563667D01*
X156326333Y-72733000D01*
X156326333Y-73071667D01*
X156411000Y-73241000D01*
X156495667Y-73325667D01*
X156665000Y-73410333D01*
X157088333Y-73410333D01*
X157257667Y-73325667D01*
X157342333Y-73241000D01*
X157427000Y-73071667D01*
X157427000Y-72733000D01*
X157342333Y-72563667D01*
X157257667Y-72479000D01*
X157088333Y-72394333D01*
X130104333Y-77305000D02*
X129257667Y-77897666D01*
X130104333Y-78321000D02*
X128326333Y-78321000D01*
X128326333Y-77643666D01*
X128411000Y-77474333D01*
X128495667Y-77389666D01*
X128665000Y-77305000D01*
X128919000Y-77305000D01*
X129088333Y-77389666D01*
X129173000Y-77474333D01*
X129257667Y-77643666D01*
X129257667Y-78321000D01*
X128326333Y-76797000D02*
X130104333Y-76204333D01*
X128326333Y-75611666D01*
X130104333Y-74087666D02*
X130104333Y-75103666D01*
X130104333Y-74595666D02*
X128326333Y-74595666D01*
X128580333Y-74765000D01*
X128749667Y-74934333D01*
X128834333Y-75103666D01*
X129088333Y-73071667D02*
X129003667Y-73241000D01*
X128919000Y-73325667D01*
X128749667Y-73410333D01*
X128665000Y-73410333D01*
X128495667Y-73325667D01*
X128411000Y-73241000D01*
X128326333Y-73071667D01*
X128326333Y-72733000D01*
X128411000Y-72563667D01*
X128495667Y-72479000D01*
X128665000Y-72394333D01*
X128749667Y-72394333D01*
X128919000Y-72479000D01*
X129003667Y-72563667D01*
X129088333Y-72733000D01*
X129088333Y-73071667D01*
X129173000Y-73241000D01*
X129257667Y-73325667D01*
X129427000Y-73410333D01*
X129765667Y-73410333D01*
X129935000Y-73325667D01*
X130019667Y-73241000D01*
X130104333Y-73071667D01*
X130104333Y-72733000D01*
X130019667Y-72563667D01*
X129935000Y-72479000D01*
X129765667Y-72394333D01*
X129427000Y-72394333D01*
X129257667Y-72479000D01*
X129173000Y-72563667D01*
X129088333Y-72733000D01*
X101804333Y-84905000D02*
X100957667Y-85497666D01*
X101804333Y-85921000D02*
X100026333Y-85921000D01*
X100026333Y-85243666D01*
X100111000Y-85074333D01*
X100195667Y-84989666D01*
X100365000Y-84905000D01*
X100619000Y-84905000D01*
X100788333Y-84989666D01*
X100873000Y-85074333D01*
X100957667Y-85243666D01*
X100957667Y-85921000D01*
X100026333Y-84397000D02*
X101804333Y-83804333D01*
X100026333Y-83211666D01*
X101804333Y-81687666D02*
X101804333Y-82703666D01*
X101804333Y-82195666D02*
X100026333Y-82195666D01*
X100280333Y-82365000D01*
X100449667Y-82534333D01*
X100534333Y-82703666D01*
X100026333Y-81095000D02*
X100026333Y-79909667D01*
X101804333Y-80671667D01*
M02*
